<?xml version="1.0" encoding="UTF-8" standalone="no"?>
<svg
   xmlns:dc="http://purl.org/dc/elements/1.1/"
   xmlns:cc="http://creativecommons.org/ns#"
   xmlns:rdf="http://www.w3.org/1999/02/22-rdf-syntax-ns#"
   xmlns:svg="http://www.w3.org/2000/svg"
   xmlns="http://www.w3.org/2000/svg"
   xmlns:sodipodi="http://sodipodi.sourceforge.net/DTD/sodipodi-0.dtd"
   xmlns:inkscape="http://www.inkscape.org/namespaces/inkscape"
   version="1.1"
   id="Layer_1"
   x="0px"
   y="0px"
   viewBox="0 0 64 64"
   style="enable-background:new 0 0 64 64;"
   xml:space="preserve"
   sodipodi:docname="pardus-java-installer.svg"
   inkscape:version="1.0.2 (e86c870879, 2021-01-15)"><metadata
   id="metadata40"><rdf:RDF><cc:Work
       rdf:about=""><dc:format>image/svg+xml</dc:format><dc:type
         rdf:resource="http://purl.org/dc/dcmitype/StillImage" /></cc:Work></rdf:RDF></metadata><defs
   id="defs38" /><sodipodi:namedview
   pagecolor="#ffffff"
   bordercolor="#666666"
   borderopacity="1"
   objecttolerance="10"
   gridtolerance="10"
   guidetolerance="10"
   inkscape:pageopacity="0"
   inkscape:pageshadow="2"
   inkscape:window-width="1920"
   inkscape:window-height="1011"
   id="namedview36"
   showgrid="false"
   inkscape:zoom="6.6953125"
   inkscape:cx="26.859636"
   inkscape:cy="34.38395"
   inkscape:window-x="0"
   inkscape:window-y="0"
   inkscape:window-maximized="1"
   inkscape:current-layer="Layer_1" />
<style
   type="text/css"
   id="style2">
	.st0{fill:url(#SVGID_1_);}
	.st1{fill:#FFFFFF;}
</style>
<linearGradient
   id="SVGID_1_"
   gradientUnits="userSpaceOnUse"
   x1="5.5304"
   y1="754.2715"
   x2="57.5711"
   y2="699.1699"
   gradientTransform="matrix(1 0 0 1 0 -694.252)">
	<stop
   offset="0"
   style="stop-color:#AA0004"
   id="stop4" />
	<stop
   offset="1"
   style="stop-color:#FF151B"
   id="stop6" />
</linearGradient>
<path
   class="st0"
   d="M51.7,64H12.3C5.5,64,0,58.5,0,51.7V12.3C0,5.5,5.5,0,12.3,0h39.3C58.5,0,64,5.5,64,12.3v39.3  C64,58.5,58.5,64,51.7,64z"
   id="path9" />

<path
   d="m 26.135227,10.500137 -5.113094,2.100333 2.105723,5.113093 5.113096,-2.105723 -2.105725,-5.107842 z m 11.819057,0.02155 -2.127314,5.102313 5.102314,2.127315 2.127315,-5.102314 z m -5.955417,7.656097 A 13.822165,13.822165 0 0 0 18.176702,31.999957 13.822165,13.822165 0 0 0 31.998867,45.82212 13.822165,13.822165 0 0 0 45.821032,31.999957 13.822165,13.822165 0 0 0 31.998867,18.177792 Z m -19.351032,2.764432 -2.127313,5.102314 5.102314,2.127314 2.127313,-5.102315 z m 38.751822,0.08099 -5.113094,2.105724 2.105723,5.113096 5.107843,-2.105723 -2.100334,-5.113096 z m -21.797001,3.066862 a 8.293299,8.293299 0 0 0 -0.367145,2.381089 8.293299,8.293299 0 0 0 8.2933,8.293299 8.293299,8.293299 0 0 0 2.381089,-0.367144 8.293299,8.293299 0 0 1 -7.909872,5.895984 8.293299,8.293299 0 0 1 -8.2933,-8.2933 8.293299,8.293299 0 0 1 5.895984,-7.909873 z m -13.994942,11.667849 -5.107843,2.105724 2.100334,5.113094 5.113095,-2.105724 -2.105725,-5.113094 z m 32.769589,0.07019 -2.127314,5.102313 5.102314,2.127315 2.127314,-5.102315 z m -25.306448,10.420529 -2.127316,5.102314 5.102314,2.127316 2.127315,-5.102314 z m 17.801565,0.0378 -5.113094,2.105723 2.105723,5.107843 5.113094,-2.100334 -2.105723,-5.113094 z"
   fill="#555555"
   stroke-linecap="square"
   stroke-width="2.76443"
   style="fill:#ffffff;fill-opacity:1;paint-order:fill markers stroke"
   id="path4" /></svg>
