<?xml version="1.0" encoding="UTF-8" standalone="no"?>
<!-- Created with Inkscape (http://www.inkscape.org/) -->

<svg
   width="64"
   height="64"
   viewBox="0 0 16.933333 16.933333"
   version="1.1"
   id="svg1"
   inkscape:version="1.3 (0e150ed6c4, 2023-07-21)"
   sodipodi:docname="pardus-night-light-off.svg"
   xmlns:inkscape="http://www.inkscape.org/namespaces/inkscape"
   xmlns:sodipodi="http://sodipodi.sourceforge.net/DTD/sodipodi-0.dtd"
   xmlns="http://www.w3.org/2000/svg"
   xmlns:svg="http://www.w3.org/2000/svg">
  <sodipodi:namedview
     id="namedview1"
     pagecolor="#ffffff"
     bordercolor="#000000"
     borderopacity="0.25"
     inkscape:showpageshadow="2"
     inkscape:pageopacity="0.0"
     inkscape:pagecheckerboard="0"
     inkscape:deskcolor="#d1d1d1"
     inkscape:document-units="px"
     inkscape:zoom="4.6614685"
     inkscape:cx="7.9374129"
     inkscape:cy="37.434555"
     inkscape:window-width="1920"
     inkscape:window-height="1171"
     inkscape:window-x="0"
     inkscape:window-y="0"
     inkscape:window-maximized="1"
     inkscape:current-layer="layer1" />
  <defs
     id="defs1" />
  <g
     inkscape:label="Layer 1"
     inkscape:groupmode="layer"
     id="layer1">
    <g
       id="g147"
       transform="matrix(0.26458333,0,0,0.26458333,73.841344,25.161875)">
      <path
         class="st24"
         d="m -243.9854,-56.9 c -3.8,-1.1 -6.7,-4.2 -7.7,-7.9 -1.4,-5.3 0.8,-10.3 4.8,-12.9 -9.2,-0.1 -16.5,8.4 -14.3,18 1.3,5.5 5.7,9.7 11.2,10.8 7.7,1.5 14.7,-3.1 16.8,-9.9 -2.9,2.1 -6.8,3.1 -10.8,1.9 z"
         id="path113"
         style="opacity:0.5;fill:#b6b6b5" />
      <g
         id="g114"
         transform="translate(-139.4854)">&#10;	<path
   class="st28"
   d="m -107.6,-43.2 c -11,0 -20,-9 -20,-20 0,-11 9,-20 20,-20 11,0 20,9 20,20 0,11 -8.9,20 -20,20 z m 0,-37 c -9.4,0 -17,7.6 -17,17 0,9.4 7.6,17 17,17 9.4,0 17,-7.6 17,-17 0,-9.4 -7.6,-17 -17,-17 z"
   id="path114"
   style="fill:#b6b6b5" />
&#10;</g>
      <g
         class="st27"
         id="g129"
         transform="translate(-139.4854)"
         style="opacity:0.5">&#10;	<path
   class="st28"
   d="m -97.2,-86.5 -3.2,2.4 c -0.1,0.1 -0.1,0.2 0,0.2 l 3.7,1.6 c 0.1,0 0.2,0 0.2,-0.1 l -0.4,-4 c -0.1,-0.1 -0.2,-0.1 -0.3,-0.1 z"
   id="path115"
   style="fill:#b6b6b5" />
&#10;	<path
   class="st28"
   d="m -88.5,-80.2 -3.9,0.8 c -0.1,0 -0.1,0.1 -0.1,0.2 l 2.7,3 c 0.1,0.1 0.2,0 0.2,0 l 1.2,-3.8 c 0.1,-0.1 0,-0.2 -0.1,-0.2 z"
   id="path116"
   style="fill:#b6b6b5" />
&#10;	<path
   class="st28"
   d="m -83.1,-71 -3.9,-0.8 c -0.1,0 -0.2,0.1 -0.1,0.2 l 1.2,3.8 c 0,0.1 0.1,0.1 0.2,0 l 2.7,-3 c 0,0 0,-0.1 -0.1,-0.2 z"
   id="path117"
   style="fill:#b6b6b5" />
&#10;	<path
   class="st28"
   d="m -81.9,-60.3 -3.2,-2.4 c -0.1,-0.1 -0.2,0 -0.2,0.1 l -0.4,4 c 0,0.1 0.1,0.2 0.2,0.1 l 3.7,-1.6 c -0.1,0 -0.1,-0.1 -0.1,-0.2 z"
   id="path118"
   style="fill:#b6b6b5" />
&#10;	<path
   class="st28"
   d="m -85.2,-50.1 -2,-3.5 c 0,-0.1 -0.2,-0.1 -0.2,0 l -2,3.5 c 0,0.1 0,0.2 0.1,0.2 h 4 c 0.1,0 0.1,-0.1 0.1,-0.2 z"
   id="path119"
   style="fill:#b6b6b5" />
&#10;	<path
   class="st28"
   d="m -92.3,-42.1 -0.4,-4 c 0,-0.1 -0.1,-0.1 -0.2,-0.1 l -3.2,2.4 c -0.1,0.1 -0.1,0.2 0,0.2 l 3.7,1.6 c 0,0.1 0.1,0 0.1,-0.1 z"
   id="path120"
   style="fill:#b6b6b5" />
&#10;	<path
   class="st28"
   d="m -102.1,-37.7 1.2,-3.8 c 0,-0.1 0,-0.2 -0.1,-0.2 l -3.9,0.8 c -0.1,0 -0.1,0.1 -0.1,0.2 l 2.7,3 c 0,0.1 0.2,0.1 0.2,0 z"
   id="path121"
   style="fill:#b6b6b5" />
&#10;	<path
   class="st28"
   d="m -112.8,-37.7 2.7,-3 c 0.1,-0.1 0,-0.2 -0.1,-0.2 l -3.9,-0.8 c -0.1,0 -0.2,0.1 -0.1,0.2 l 1.2,3.8 c 0,0.1 0.1,0.1 0.2,0 z"
   id="path122"
   style="fill:#b6b6b5" />
&#10;	<path
   class="st28"
   d="m -122.6,-42 3.7,-1.6 c 0.1,0 0.1,-0.2 0,-0.2 l -3.2,-2.4 c -0.1,-0.1 -0.2,0 -0.2,0.1 l -0.4,4 c -0.1,0.1 0,0.2 0.1,0.1 z"
   id="path123"
   style="fill:#b6b6b5" />
&#10;	<path
   class="st28"
   d="m -129.8,-49.9 h 4 c 0.1,0 0.2,-0.1 0.1,-0.2 l -2,-3.5 c 0,-0.1 -0.2,-0.1 -0.2,0 l -2,3.5 c -0.1,0.1 0,0.2 0.1,0.2 z"
   id="path124"
   style="fill:#b6b6b5" />
&#10;	<path
   class="st28"
   d="m -133.2,-60.1 3.7,1.6 c 0.1,0 0.2,0 0.2,-0.1 l -0.4,-4 c 0,-0.1 -0.1,-0.1 -0.2,-0.1 l -3.2,2.4 c -0.2,0.1 -0.2,0.2 -0.1,0.2 z"
   id="path125"
   style="fill:#b6b6b5" />
&#10;	<path
   class="st28"
   d="m -132.1,-70.8 2.7,3 c 0.1,0.1 0.2,0 0.2,0 l 1.2,-3.8 c 0,-0.1 0,-0.2 -0.1,-0.2 l -3.9,0.8 c -0.1,0.1 -0.2,0.2 -0.1,0.2 z"
   id="path126"
   style="fill:#b6b6b5" />
&#10;	<path
   class="st28"
   d="m -126.8,-80.1 1.2,3.8 c 0,0.1 0.1,0.1 0.2,0 l 2.7,-3 c 0.1,-0.1 0,-0.2 -0.1,-0.2 l -3.9,-0.8 c 0,0.1 -0.1,0.2 -0.1,0.2 z"
   id="path127"
   style="fill:#b6b6b5" />
&#10;	<path
   class="st28"
   d="m -118.1,-86.4 -0.4,4 c 0,0.1 0.1,0.2 0.2,0.1 l 3.7,-1.6 c 0.1,0 0.1,-0.2 0,-0.2 l -3.2,-2.4 c -0.2,0 -0.3,0 -0.3,0.1 z"
   id="path128"
   style="fill:#b6b6b5" />
&#10;	<path
   class="st28"
   d="m -107.7,-88.7 -2,3.5 c 0,0.1 0,0.2 0.1,0.2 h 4 c 0.1,0 0.2,-0.1 0.1,-0.2 l -2,-3.5 c 0,0 -0.1,0 -0.2,0 z"
   id="path129"
   style="fill:#b6b6b5" />
&#10;</g>
      <g
         id="g130"
         transform="translate(-139.4854)">&#10;	<path
   class="st26"
   d="m -84.4,-37.5 c -0.5,0 -1,-0.2 -1.4,-0.6 l -47,-45.5 c -0.8,-0.8 -0.8,-2 0,-2.8 0.8,-0.8 2,-0.8 2.8,0 l 47,45.5 c 0.8,0.8 0.8,2 0,2.8 -0.4,0.4 -0.9,0.6 -1.4,0.6 z"
   id="path130"
   style="fill:#020203" />
&#10;</g>
    </g>
  </g>
</svg>
