<?xml version="1.0" encoding="UTF-8" standalone="no"?>
<!-- Created with Inkscape (http://www.inkscape.org/) -->

<svg
   width="64"
   height="64"
   viewBox="0 0 16.933333 16.933333"
   version="1.1"
   id="svg1"
   inkscape:version="1.3 (0e150ed6c4, 2023-07-21)"
   sodipodi:docname="pardus-night-light.svg"
   xmlns:inkscape="http://www.inkscape.org/namespaces/inkscape"
   xmlns:sodipodi="http://sodipodi.sourceforge.net/DTD/sodipodi-0.dtd"
   xmlns="http://www.w3.org/2000/svg"
   xmlns:svg="http://www.w3.org/2000/svg">
  <sodipodi:namedview
     id="namedview1"
     pagecolor="#ffffff"
     bordercolor="#000000"
     borderopacity="0.25"
     inkscape:showpageshadow="2"
     inkscape:pageopacity="0.0"
     inkscape:pagecheckerboard="0"
     inkscape:deskcolor="#d1d1d1"
     inkscape:document-units="px"
     inkscape:zoom="6.592312"
     inkscape:cx="28.518068"
     inkscape:cy="35.875122"
     inkscape:window-width="1920"
     inkscape:window-height="1127"
     inkscape:window-x="0"
     inkscape:window-y="0"
     inkscape:window-maximized="1"
     inkscape:current-layer="layer1" />
  <defs
     id="defs1">
    <linearGradient
       id="SVGID_00000129901450951144020920000007753056098303935627_"
       gradientUnits="userSpaceOnUse"
       x1="-434.02811"
       y1="-74.135002"
       x2="-434.02811"
       y2="-49.8008"
       gradientTransform="matrix(1,0,0,-1,0,-121.5918)">
      <stop
         offset="0"
         style="stop-color:#27AFD9"
         id="stop80" />
      <stop
         offset="1"
         style="stop-color:#42BDD9"
         id="stop81" />
    </linearGradient>
    <linearGradient
       id="SVGID_00000051345754610491515170000012538977290887660704_"
       gradientUnits="userSpaceOnUse"
       x1="-136.933"
       y1="-59.6376"
       x2="-108.5382"
       y2="-59.6376"
       gradientTransform="matrix(1,0,0,-1,0,-121.5918)">
      <stop
         offset="0"
         style="stop-color:#27AFD9"
         id="stop185" />
      <stop
         offset="1"
         style="stop-color:#42BDD9"
         id="stop186" />
    </linearGradient>
  </defs>
  <g
     inkscape:label="Layer 1"
     inkscape:groupmode="layer"
     id="layer1">
    <g
       id="g1"
       transform="matrix(1.2150421,0,0,1.2150421,-1.8206897,-1.8206897)">
      <g
         id="g320"
         transform="matrix(0.26458333,0,0,0.26458333,82.221191,26.06059)">
        <path
           class="st0"
           d="m -278.75726,-86.996718 c -11.3,0 -20.4,9.2 -20.4,20.4 0,11.3 9.2,20.4 20.4,20.4 11.2,0 20.4,-9.1 20.4,-20.4 0,-11.3 -9.1,-20.4 -20.4,-20.4 z"
           id="path155"
           style="opacity:0.3;fill:#ffffff;enable-background:new" />
        <circle
           class="st20"
           cx="-278.75726"
           cy="-66.596718"
           r="18.1"
           id="circle155"
           style="fill:#ebf3f8;fill-opacity:1" />
        <g
           id="g185"
           transform="translate(-156.55726,-4.6967179)">
          <path
             class="st0"
             d="m -111.4,-80.5 v 0 l -3.8,-1.7 c -0.2,-0.1 -0.3,-0.3 -0.4,-0.5 0,-0.2 0.1,-0.4 0.3,-0.6 l 3.4,-2.5 h 0.2 c 0.3,0 0.6,0.2 0.6,0.6 l 0.4,4.2 -0.2,0.3 c -0.1,0.1 -0.3,0.2 -0.5,0.2 z"
             id="path156"
             style="opacity:0.3;fill:#ffffff;enable-background:new" />
          <path
             class="st4"
             d="m -111.8,-85.2 -3.3,2.3 c -0.1,0.1 -0.1,0.2 0,0.2 l 3.7,1.6 c 0.1,0 0.2,0 0.2,-0.1 l -0.4,-4 c 0,0 -0.1,-0.1 -0.2,0 z"
             id="path157"
             style="fill:#2f3537" />
          <path
             class="st0"
             d="m -104.6,-74.4 -0.2,-0.2 -2.7,-3 c -0.1,-0.2 -0.2,-0.4 -0.1,-0.6 0.1,-0.2 0.2,-0.4 0.5,-0.4 l 4,-0.8 h 0.1 c 0.2,0 0.4,0.1 0.5,0.3 0.1,0.2 0.1,0.4 0.1,0.6 l -1.2,3.8 c -0.1,0.3 -0.3,0.4 -0.6,0.4 z"
             id="path158"
             style="opacity:0.3;fill:#ffffff;enable-background:new" />
          <path
             class="st4"
             d="m -103.1,-78.9 -3.9,0.8 c -0.1,0 -0.1,0.1 -0.1,0.2 l 2.7,3 c 0.1,0.1 0.2,0 0.2,0 l 1.2,-3.8 c 0.1,-0.2 0,-0.3 -0.1,-0.2 z"
             id="path159"
             style="fill:#2f3537" />
          <path
             class="st0"
             d="m -100.4,-66 c -0.3,0 -0.5,-0.2 -0.6,-0.4 l -1.2,-3.8 c -0.1,-0.2 0,-0.4 0.1,-0.6 0.1,-0.2 0.3,-0.3 0.5,-0.3 h 0.1 l 4,0.8 c 0.2,0 0.4,0.2 0.5,0.4 0.1,0.2 0,0.4 -0.1,0.6 l -2.8,3.1 z"
             id="path160"
             style="opacity:0.3;fill:#ffffff;enable-background:new" />
          <path
             class="st4"
             d="m -97.7,-69.7 -3.9,-0.8 c -0.1,0 -0.2,0.1 -0.1,0.2 l 1.2,3.8 c 0,0.1 0.1,0.1 0.2,0 l 2.7,-3 c 0,-0.1 0,-0.2 -0.1,-0.2 z"
             id="path161"
             style="fill:#2f3537" />
          <path
             class="st0"
             d="m -100.5,-56.7 -0.3,-0.2 -0.1,-0.2 v -0.3 l 0.4,-4 c 0,-0.3 0.3,-0.6 0.6,-0.6 h 0.2 l 0.2,0.1 3.2,2.4 c 0.2,0.1 0.3,0.3 0.3,0.6 0,0.2 -0.2,0.4 -0.4,0.5 l -3.8,1.7 h -0.2 z"
             id="path162"
             style="opacity:0.3;fill:#ffffff;enable-background:new" />
          <path
             class="st4"
             d="m -96.6,-59 -3.2,-2.4 c -0.1,-0.1 -0.2,0 -0.2,0.1 l -0.4,4 c 0,0.1 0.1,0.2 0.2,0.1 l 3.7,-1.6 c 0,-0.1 0,-0.2 -0.1,-0.2 z"
             id="path163"
             style="fill:#2f3537" />
          <path
             class="st0"
             d="m -103.9,-48.1 c -0.2,0 -0.4,-0.1 -0.5,-0.3 -0.1,-0.2 -0.1,-0.4 0,-0.6 l 2,-3.5 c 0.1,-0.2 0.3,-0.3 0.5,-0.3 0.2,0 0.4,0.1 0.5,0.3 l 2,3.5 c 0.1,0.2 0.1,0.4 0,0.6 -0.1,0.2 -0.3,0.3 -0.5,0.3 z"
             id="path164"
             style="opacity:0.3;fill:#ffffff;enable-background:new" />
          <path
             class="st4"
             d="m -99.8,-48.8 -2,-3.5 c 0,-0.1 -0.2,-0.1 -0.2,0 l -2,3.5 c 0,0.1 0,0.2 0.1,0.2 h 4 c 0.1,0 0.1,-0.1 0.1,-0.2 z"
             id="path165"
             style="fill:#2f3537" />
          <path
             class="st0"
             d="m -107.2,-40.2 v 0 l -3.8,-1.7 c -0.2,-0.1 -0.3,-0.3 -0.4,-0.5 0,-0.2 0.1,-0.4 0.3,-0.6 l 3.4,-2.5 h 0.2 c 0.3,0 0.6,0.2 0.6,0.6 l 0.4,4.2 -0.2,0.3 c -0.1,0.1 -0.3,0.2 -0.5,0.2 z"
             id="path166"
             style="opacity:0.3;fill:#ffffff;enable-background:new" />
          <path
             class="st4"
             d="m -107,-40.8 -0.4,-4 c 0,-0.1 -0.1,-0.1 -0.2,-0.1 l -3.2,2.4 c -0.1,0.1 -0.1,0.2 0,0.2 l 3.7,1.6 c 0,0 0.1,0 0.1,-0.1 z"
             id="path167"
             style="fill:#2f3537" />
          <path
             class="st0"
             d="m -117.1,-35.8 -0.2,-0.2 -2.7,-3 c -0.1,-0.2 -0.2,-0.4 -0.1,-0.6 0.1,-0.2 0.2,-0.4 0.5,-0.4 l 4,-0.8 h 0.1 c 0.2,0 0.4,0.1 0.5,0.3 0.1,0.2 0.1,0.4 0.1,0.6 l -1.2,3.8 c -0.1,0.3 -0.3,0.4 -0.6,0.4 z"
             id="path168"
             style="opacity:0.3;fill:#ffffff;enable-background:new" />
          <path
             class="st4"
             d="m -116.7,-36.4 1.2,-3.8 c 0,-0.1 0,-0.2 -0.1,-0.2 l -3.9,0.8 c -0.1,0 -0.1,0.1 -0.1,0.2 l 2.7,3 c 0,0.1 0.1,0.1 0.2,0 z"
             id="path169"
             style="fill:#2f3537" />
          <path
             class="st0"
             d="m -127.5,-35.8 c -0.3,0 -0.5,-0.2 -0.6,-0.4 l -1.2,-3.8 c -0.1,-0.2 0,-0.4 0.1,-0.6 0.1,-0.2 0.3,-0.3 0.5,-0.3 h 0.1 0.1 l 3.9,0.8 c 0.2,0 0.4,0.2 0.5,0.4 0.1,0.2 0,0.4 -0.1,0.6 l -3,3.2 z"
             id="path170"
             style="opacity:0.3;fill:#ffffff;enable-background:new" />
          <path
             class="st4"
             d="m -127.5,-36.4 2.7,-3 c 0.1,-0.1 0,-0.2 -0.1,-0.2 l -3.9,-0.8 c -0.1,0 -0.2,0.1 -0.1,0.2 l 1.2,3.8 c 0.1,0.1 0.2,0.1 0.2,0 z"
             id="path171"
             style="fill:#2f3537" />
          <path
             class="st0"
             d="m -137.5,-40.2 -0.2,-0.2 -0.1,-0.2 v -0.3 l 0.4,-4 c 0,-0.3 0.3,-0.6 0.6,-0.6 h 0.2 l 0.2,0.1 3.2,2.4 c 0.2,0.1 0.3,0.3 0.3,0.6 0,0.2 -0.2,0.4 -0.4,0.5 l -3.9,1.7 h -0.2 z"
             id="path172"
             style="opacity:0.3;fill:#ffffff;enable-background:new" />
          <path
             class="st4"
             d="m -137.3,-40.7 3.7,-1.6 c 0.1,0 0.1,-0.2 0,-0.2 l -3.2,-2.4 c -0.1,-0.1 -0.2,0 -0.2,0.1 l -0.4,4 c 0,0.1 0.1,0.1 0.1,0.1 z"
             id="path173"
             style="fill:#2f3537" />
          <path
             class="st0"
             d="m -144.5,-48.1 c -0.2,0 -0.4,-0.1 -0.5,-0.3 -0.1,-0.2 -0.1,-0.4 0,-0.6 l 2,-3.5 c 0.1,-0.2 0.3,-0.3 0.5,-0.3 0.2,0 0.4,0.1 0.5,0.3 l 2,3.5 c 0.1,0.2 0.1,0.4 0,0.6 -0.1,0.2 -0.3,0.3 -0.5,0.3 z"
             id="path174"
             style="opacity:0.3;fill:#ffffff;enable-background:new" />
          <path
             class="st4"
             d="m -144.5,-48.6 h 4 c 0.1,0 0.2,-0.1 0.1,-0.2 l -2,-3.5 c 0,-0.1 -0.2,-0.1 -0.2,0 l -2,3.5 c 0,0.1 0,0.2 0.1,0.2 z"
             id="path175"
             style="fill:#2f3537" />
          <path
             class="st0"
             d="m -144.2,-56.7 -0.1,-0.1 -3.7,-1.6 c -0.2,-0.1 -0.4,-0.2 -0.4,-0.5 0,-0.2 0.1,-0.4 0.3,-0.6 l 3.3,-2.4 h 0.2 c 0.3,0 0.6,0.2 0.6,0.6 l 0.4,4.2 v 0.2 c -0.1,0.1 -0.3,0.2 -0.6,0.2 z"
             id="path176"
             style="opacity:0.3;fill:#ffffff;enable-background:new" />
          <path
             class="st4"
             d="m -147.8,-58.8 3.7,1.6 c 0.1,0 0.2,0 0.2,-0.1 l -0.4,-4 c 0,-0.1 -0.1,-0.1 -0.2,-0.1 l -3.2,2.4 c -0.2,0 -0.2,0.1 -0.1,0.2 z"
             id="path177"
             style="fill:#2f3537" />
          <path
             class="st0"
             d="m -144.2,-66 -0.2,-0.2 -2.7,-3 c -0.1,-0.2 -0.2,-0.4 -0.1,-0.6 0.1,-0.2 0.2,-0.4 0.5,-0.4 l 4,-0.8 h 0.1 c 0.2,0 0.4,0.1 0.5,0.3 0.1,0.2 0.2,0.4 0.1,0.6 l -1.2,3.8 c -0.1,0.3 -0.3,0.4 -0.6,0.4 z"
             id="path178"
             style="opacity:0.3;fill:#ffffff;enable-background:new" />
          <path
             class="st4"
             d="m -146.7,-69.5 2.7,3 c 0.1,0.1 0.2,0 0.2,0 l 1.2,-3.8 c 0,-0.1 0,-0.2 -0.1,-0.2 l -3.9,0.8 c -0.2,0 -0.2,0.1 -0.1,0.2 z"
             id="path179"
             style="fill:#2f3537" />
          <path
             class="st0"
             d="m -140.1,-74.4 c -0.3,0 -0.5,-0.2 -0.6,-0.4 l -1.2,-3.8 c -0.1,-0.2 0,-0.4 0.1,-0.6 0.1,-0.2 0.3,-0.3 0.5,-0.3 h 0.1 l 4,0.8 c 0.2,0 0.4,0.2 0.5,0.4 0.1,0.2 0,0.4 -0.1,0.6 l -2.8,3.1 z"
             id="path180"
             style="opacity:0.3;fill:#ffffff;enable-background:new" />
          <path
             class="st4"
             d="m -141.4,-78.8 1.2,3.8 c 0,0.1 0.1,0.1 0.2,0 l 2.7,-3 c 0.1,-0.1 0,-0.2 -0.1,-0.2 l -3.9,-0.7 c -0.1,-0.1 -0.2,0 -0.1,0.1 z"
             id="path181"
             style="fill:#2f3537" />
          <path
             class="st0"
             d="m -133.3,-80.5 -0.2,-0.2 -0.2,-0.2 v -0.3 l 0.4,-4 c 0,-0.3 0.3,-0.6 0.6,-0.6 h 0.2 l 0.2,0.1 3.2,2.4 c 0.2,0.1 0.3,0.3 0.3,0.6 0,0.2 -0.2,0.4 -0.4,0.5 l -3.8,1.7 h -0.2 z"
             id="path182"
             style="opacity:0.3;fill:#ffffff;enable-background:new" />
          <path
             class="st4"
             d="m -132.8,-85.1 -0.4,4 c 0,0.1 0.1,0.2 0.2,0.1 l 3.7,-1.6 c 0.1,0 0.1,-0.2 0,-0.2 l -3.2,-2.4 c -0.2,-0.1 -0.3,0 -0.3,0.1 z"
             id="path183"
             style="fill:#2f3537" />
          <path
             class="st0"
             d="m -124.2,-83.2 c -0.2,0 -0.4,-0.1 -0.5,-0.3 -0.1,-0.2 -0.1,-0.4 0,-0.6 l 2,-3.5 c 0.1,-0.2 0.3,-0.3 0.5,-0.3 0.2,0 0.4,0.1 0.5,0.3 l 2,3.5 c 0.1,0.2 0.1,0.4 0,0.6 -0.1,0.2 -0.3,0.3 -0.5,0.3 z"
             id="path184"
             style="opacity:0.3;fill:#ffffff;enable-background:new" />
          <path
             class="st4"
             d="m -122.3,-87.4 -2,3.5 c 0,0.1 0,0.2 0.1,0.2 h 4 c 0.1,0 0.2,-0.1 0.1,-0.2 l -2,-3.5 c 0,-0.1 -0.2,-0.1 -0.2,0 z"
             id="path185"
             style="fill:#2f3537" />
        </g>
        <g
           id="g188"
           transform="translate(-156.55726,-4.6967179)">
          <linearGradient
             id="linearGradient2"
             gradientUnits="userSpaceOnUse"
             x1="-136.933"
             y1="-59.6376"
             x2="-108.5382"
             y2="-59.6376"
             gradientTransform="matrix(1,0,0,-1,0,-121.5918)">
            <stop
               offset="0"
               style="stop-color:#27AFD9"
               id="stop1" />
            <stop
               offset="1"
               style="stop-color:#42BDD9"
               id="stop2" />
          </linearGradient>
          <path
             style="fill:url(#SVGID_00000051345754610491515170000012538977290887660704_)"
             d="m -119.3,-55.6 c -3.8,-1.1 -6.7,-4.2 -7.7,-7.9 -1.4,-5.4 0.9,-10.3 4.8,-13 -9.2,-0.1 -16.5,8.4 -14.3,18 1.3,5.5 5.7,9.7 11.2,10.8 7.7,1.5 14.7,-3.1 16.8,-9.9 -2.8,2.2 -6.7,3.2 -10.8,2 z"
             id="path186" />
          <g
             id="g187">
            <path
               class="st4"
               d="m -122.2,-42 c -11,0 -19.9,-8.9 -19.9,-19.9 0,-11 8.9,-19.9 19.9,-19.9 11,0 19.9,8.9 19.9,19.9 0,11 -8.9,19.9 -19.9,19.9 z m 0,-37.7 c -9.8,0 -17.8,8 -17.8,17.8 0,9.8 8,17.8 17.8,17.8 9.8,0 17.8,-8 17.8,-17.8 0,-9.8 -8,-17.8 -17.8,-17.8 z"
               id="path187"
               style="fill:#2f3537" />
          </g>
        </g>
      </g>
    </g>
  </g>
</svg>
