<?xml version="1.0" encoding="UTF-8" standalone="no"?>
<!-- Created with Inkscape (http://www.inkscape.org/) -->

<svg
   width="64"
   height="64"
   viewBox="0 0 16.933333 16.933333"
   version="1.1"
   id="svg1"
   inkscape:version="1.3 (0e150ed6c4, 2023-07-21)"
   sodipodi:docname="pardus-night-light-off-symbolic.svg"
   xmlns:inkscape="http://www.inkscape.org/namespaces/inkscape"
   xmlns:sodipodi="http://sodipodi.sourceforge.net/DTD/sodipodi-0.dtd"
   xmlns="http://www.w3.org/2000/svg"
   xmlns:svg="http://www.w3.org/2000/svg">
  <sodipodi:namedview
     id="namedview1"
     pagecolor="#ffffff"
     bordercolor="#000000"
     borderopacity="0.25"
     inkscape:showpageshadow="2"
     inkscape:pageopacity="0.0"
     inkscape:pagecheckerboard="0"
     inkscape:deskcolor="#d1d1d1"
     inkscape:document-units="px"
     inkscape:zoom="6.592312"
     inkscape:cx="28.897297"
     inkscape:cy="31.476059"
     inkscape:window-width="1920"
     inkscape:window-height="1127"
     inkscape:window-x="0"
     inkscape:window-y="0"
     inkscape:window-maximized="1"
     inkscape:current-layer="layer1" />
  <defs
     id="defs1" />
  <g
     inkscape:label="Layer 1"
     inkscape:groupmode="layer"
     id="layer1">
    <path
       class="st24"
       d="M 9.513939,10.568538 C 8.2301852,10.196924 7.2504784,9.1496514 6.9126485,7.8996806 6.4396865,6.1091819 7.1829123,4.4200321 8.5342321,3.5416743 5.4261966,3.5078912 2.960038,6.3794458 3.7032638,9.6226134 4.1424427,11.480679 5.6288946,12.899563 7.4869593,13.271177 10.08825,13.777922 12.453059,12.223904 13.162502,9.9266603 12.182796,10.636103 10.865259,10.973934 9.513939,10.568538 Z"
       id="path113"
       style="opacity:0.5;fill:#b5b5b5;stroke-width:0.33783;fill-opacity:1" />
    <g
       id="g114"
       transform="matrix(0.33782995,0,0,0.33782995,44.817168,29.791061)"
       style="fill:#b5b5b5;opacity:0.5;fill-opacity:1">
      <path
         class="st28"
         d="m -107.6,-43.2 c -11,0 -20,-9 -20,-20 0,-11 9,-20 20,-20 11,0 20,9 20,20 0,11 -8.9,20 -20,20 z m 0,-37 c -9.4,0 -17,7.6 -17,17 0,9.4 7.6,17 17,17 9.4,0 17,-7.6 17,-17 0,-9.4 -7.6,-17 -17,-17 z"
         id="path114"
         style="fill:#b5b5b5;fill-opacity:1" />
    </g>
    <g
       id="g130"
       transform="matrix(0.26458333,0,0,0.26458333,36.935832,25.161875)">
      <path
         class="st26"
         d="m -84.4,-37.5 c -0.5,0 -1,-0.2 -1.4,-0.6 l -47,-45.5 c -0.8,-0.8 -0.8,-2 0,-2.8 0.8,-0.8 2,-0.8 2.8,0 l 47,45.5 c 0.8,0.8 0.8,2 0,2.8 -0.4,0.4 -0.9,0.6 -1.4,0.6 z"
         id="path130"
         style="fill:#020203" />
    </g>
  </g>
</svg>
