<svg width="64" height="64" viewBox="0 0 64 64" fill="none" xmlns="http://www.w3.org/2000/svg">
<rect x="5.00012" y="9" width="54" height="50" rx="8" fill="url(#paint0_linear_2689_60603)"/>
<rect x="5" y="5" width="54" height="50" rx="8" fill="url(#paint1_linear_2689_60603)"/>
<rect x="5.7" y="5.7" width="52.6" height="48.6" rx="7.3" stroke="url(#paint2_linear_2689_60603)" stroke-width="1.4" style="mix-blend-mode:soft-light"/>
<g clip-path="url(#clip0_2689_60603)">
<path d="M49.4355 39.9735C46.3221 44.8302 40.8814 48.0515 34.6874 48.0649C25.0916 48.0857 17.2126 40.3238 17.0965 30.7287C16.9874 21.7004 23.695 14.2159 32.3956 13.1018C32.5815 13.078 32.7027 13.2907 32.5897 13.4403C30.4918 16.2171 29.2481 19.6743 29.2481 23.4229C29.2481 32.5782 36.6697 39.9997 45.825 39.9997C46.9862 39.9997 48.119 39.8806 49.2127 39.6531C49.3963 39.615 49.5367 39.8156 49.4355 39.9735Z" fill="#F1E699"/>
<path d="M49.2129 39.6529C49.3962 39.6148 49.5366 39.8149 49.4356 39.9726C46.3157 44.8399 40.8589 48.065 34.6487 48.065C24.9537 48.065 17.0953 40.2059 17.0953 30.5117C17.0953 26.6322 18.3535 23.0471 20.485 20.141C20.0011 21.7284 19.7364 23.4113 19.7258 25.1549C19.6666 34.9227 27.5116 42.8173 37.2797 42.8169C40.8193 42.8168 44.114 41.7692 46.8702 39.9665C47.6576 39.9182 48.4406 39.8134 49.2129 39.6529Z" fill="#CAAF63"/>
</g>
<defs>
<linearGradient id="paint0_linear_2689_60603" x1="5.13347" y1="58.1673" x2="58.6415" y2="58.1673" gradientUnits="userSpaceOnUse">
<stop stop-color="#3F259F"/>
<stop offset="0.0414257" stop-color="#3A3271"/>
<stop offset="0.0815191" stop-color="#070036"/>
<stop offset="0.899024" stop-color="#070036"/>
<stop offset="0.952865" stop-color="#3A3271"/>
<stop offset="1" stop-color="#3F259F"/>
</linearGradient>
<linearGradient id="paint1_linear_2689_60603" x1="32" y1="5" x2="32" y2="55" gradientUnits="userSpaceOnUse">
<stop stop-color="#3E2AB3"/>
<stop offset="1" stop-color="#0A0057"/>
</linearGradient>
<linearGradient id="paint2_linear_2689_60603" x1="32" y1="1" x2="32" y2="61" gradientUnits="userSpaceOnUse">
<stop stop-color="white" stop-opacity="0.9"/>
<stop offset="1" stop-color="white" stop-opacity="0.4"/>
</linearGradient>
<clipPath id="clip0_2689_60603">
<rect width="34.9651" height="34.9651" fill="white" transform="translate(15.8 13.1)"/>
</clipPath>
</defs>
</svg>
